<svg width="200" height="200" xmlns="http://www.w3.org/2000/svg">
 <!-- Created with Method Draw - http://github.com/duopixel/Method-Draw/ -->
 <g>
  <title>background</title>
  <rect fill="#424651" id="canvas_background" height="202" width="202" y="-1" x="-1"/>
  <g display="none" overflow="visible" y="0" x="0" height="100%" width="100%" id="canvasGrid">
   <rect fill="url(#gridpattern)" stroke-width="0" y="0" x="0" height="100%" width="100%"/>
  </g>
 </g>
 <g>
  <title>Layer 1</title>
  <ellipse ry="44.999999" rx="44.999999" id="svg_5" cy="146.450004" cx="100.499998" stroke-width="10" stroke="#424651" fill="#b54998"/>
  <ellipse ry="44.999999" rx="44.999999" id="svg_8" cy="81.450004" cx="132.499998" stroke-width="10" stroke="#424651" fill="#bce7fd"/>
  <ellipse ry="44.999999" rx="44.999999" id="svg_10" cy="97.450004" cx="68.499998" stroke-width="10" stroke="#424651" fill="#c492b1"/>
  <ellipse ry="44.999999" rx="44.999999" id="svg_9" cy="112.450004" cx="97.499998" stroke-width="10" stroke="#424651" fill="#b54998"/>
  <path id="svg_6" d="m94.339966,60.925491c2.611725,-5.64418 6.186035,-10.423721 9.576416,-12.806229c3.633347,-2.552048 2.021286,-3.659164 -1.725494,-1.185608c-1.577057,1.040222 -2.026901,0.284698 -2.026901,-3.400208c0,-8.792313 6.905029,-14.232712 23.519516,-18.530563c14.058487,-3.636627 24.422577,-7.725876 28.719833,-11.331467l3.502045,-2.93869l0,5.112595c0,6.321564 -2.97171,15.872162 -6.260574,20.122131c-3.48941,4.508514 -15.44957,12.830399 -21.318024,14.833527c-5.25795,1.794952 -16.487534,2.323318 -22.489395,1.058395c-2.990265,-0.630264 -3.939255,-0.149017 -5.489334,2.785217c-1.030075,1.951187 -1.87323,4.727173 -1.87323,6.168518c0,1.636276 -0.994522,2.620941 -2.647675,2.620941c-1.963577,0 -2.347733,-0.648376 -1.487183,-2.50856z" stroke-width="8.5" stroke="#424651" fill="#21fa90"/>
 </g>
</svg>