<svg width="200" height="200" xmlns="http://www.w3.org/2000/svg">
 <!-- Created with Method Draw - http://github.com/duopixel/Method-Draw/ -->

 <g>
  <title>background</title>
  <rect x="-1" y="-1" width="202" height="202" id="canvas_background" fill="#ffffff"/>
  <g id="canvasGrid" display="none">
   <rect id="svg_1" width="100%" height="100%" x="0" y="0" stroke-width="0" fill="url(#gridpattern)"/>
  </g>
 </g>
 <g>
  <title>Layer 1</title>
  <ellipse ry="101.998881" rx="101.498887" id="svg_2" cy="101.224986" cx="100.749992" stroke-width="8.5" stroke="#ffffff" fill="#424651"/>
  <ellipse fill="#b54998" stroke="#424651" stroke-width="10" cx="100.499998" cy="146.450004" id="svg_5" rx="44.999999" ry="44.999999"/>
  <ellipse fill="#bce7fd" stroke="#424651" stroke-width="10" cx="132.499998" cy="81.450004" id="svg_8" rx="44.999999" ry="44.999999"/>
  <ellipse fill="#c492b1" stroke="#424651" stroke-width="10" cx="68.499998" cy="97.450004" id="svg_10" rx="44.999999" ry="44.999999"/>
  <ellipse fill="#b54998" stroke="#424651" stroke-width="10" cx="97.499998" cy="112.450004" id="svg_9" rx="44.999999" ry="44.999999"/>
  <path fill="#21fa90" stroke="#424651" stroke-width="8.5" d="m94.339973,60.925491c2.611717,-5.64418 6.186028,-10.423721 9.576408,-12.806232c3.633347,-2.552048 2.021286,-3.659161 -1.725494,-1.185608c-1.577057,1.04023 -2.026901,0.284698 -2.026901,-3.4002c0,-8.79232 6.905037,-14.232721 23.519516,-18.530571c14.058487,-3.63662 24.422577,-7.72587 28.719833,-11.33146l3.502045,-2.93869l0,5.11259c0,6.321569 -2.97171,15.87216 -6.260574,20.122129c-3.48941,4.508522 -15.44957,12.830402 -21.318024,14.83353c-5.25795,1.794949 -16.487534,2.323318 -22.489395,1.058392c-2.990265,-0.63026 -3.939255,-0.14901 -5.489334,2.785217c-1.030075,1.951191 -1.87323,4.727173 -1.87323,6.168522c0,1.63628 -0.994522,2.620941 -2.647675,2.620941c-1.963577,0 -2.347725,-0.64838 -1.487175,-2.50856z" id="svg_6"/>
 </g>
</svg>